<?xml version="1.0" encoding="iso-8859-1"?>
<!-- Uploaded to: SVG Repo, www.svgrepo.com, Generator: SVG Repo Mixer Tools -->
<svg height="800px" width="800px" version="1.1" id="Layer_1" xmlns="http://www.w3.org/2000/svg" xmlns:xlink="http://www.w3.org/1999/xlink" 
	 viewBox="0 0 512.001 512.001" xml:space="preserve">
<circle style="fill:#FFD2BE;" cx="255.996" cy="146.87" r="146.87"/>
<circle style="fill:#FFAF91;" cx="255.996" cy="146.87" r="95.61"/>
<circle style="fill:#FF8269;" cx="255.996" cy="146.87" r="47.805"/>
<circle style="fill:#FF5050;" cx="255.996" cy="146.87" r="26.075"/>
<path d="M206.833,204.523c2.085,0,4.171-0.795,5.762-2.387c3.182-3.182,3.182-8.341,0-11.523c-23.934-23.935-23.934-62.879,0-86.813
	c3.182-3.182,3.182-8.341,0-11.523c-3.182-3.182-8.342-3.182-11.523,0c-30.289,30.289-30.289,79.571,0,109.86
	C202.662,203.728,204.747,204.523,206.833,204.523z"/>
<path d="M299.407,202.136c1.591,1.591,3.677,2.387,5.762,2.387c2.085,0,4.171-0.795,5.762-2.387
	c30.289-30.289,30.289-79.571,0-109.86c-3.182-3.182-8.342-3.182-11.523,0c-3.182,3.182-3.182,8.341,0,11.523
	c23.934,23.935,23.934,62.879,0,86.813C296.224,193.796,296.224,198.954,299.407,202.136z"/>
<path d="M342.044,241.4c2.085,0,4.171-0.795,5.762-2.387c36.782-36.782,48.07-91.76,28.758-140.067
	c-1.67-4.179-6.41-6.212-10.591-4.541c-4.179,1.671-6.212,6.412-4.541,10.591c16.888,42.245,7.016,90.327-25.15,122.493
	c-3.182,3.182-3.182,8.342,0,11.523C337.873,240.604,339.959,241.4,342.044,241.4z"/>
<path d="M345.208,76.955c1.608,2.037,3.992,3.099,6.4,3.099c1.768,0,3.549-0.573,5.046-1.754c3.531-2.789,4.134-7.914,1.344-11.445
	c-3.15-3.988-6.579-7.842-10.191-11.455c-3.182-3.182-8.342-3.181-11.523,0c-3.182,3.183-3.181,8.342,0.001,11.524
	C339.448,70.09,342.451,73.464,345.208,76.955z"/>
<path d="M132.696,23.902c3.182-3.182,3.182-8.342,0-11.523c-3.182-3.182-8.342-3.182-11.523,0
	c-74.345,74.343-74.345,195.311-0.001,269.655c1.591,1.591,3.677,2.387,5.762,2.387s4.171-0.795,5.762-2.387
	c3.182-3.182,3.182-8.341,0-11.523C64.705,202.521,64.705,91.893,132.696,23.902z"/>
<path d="M390.829,12.378c-3.182-3.182-8.342-3.182-11.523,0c-3.182,3.182-3.182,8.341,0,11.523c67.99,67.99,67.99,178.619,0,246.609
	c-3.182,3.182-3.182,8.342,0,11.523c1.591,1.591,3.677,2.387,5.762,2.387c2.085,0,4.171-0.795,5.762-2.387
	C465.173,207.69,465.173,86.722,390.829,12.378z"/>
<path d="M150.568,189.418c-16.888-42.245-7.016-90.327,25.15-122.493c3.182-3.182,3.182-8.342,0-11.523
	c-3.181-3.182-8.341-3.182-11.523,0c-36.782,36.782-48.07,91.76-28.758,140.067c1.273,3.187,4.334,5.126,7.568,5.126
	c1.006,0,2.031-0.188,3.023-0.585C150.206,198.339,152.239,193.597,150.568,189.418z"/>
<path d="M166.793,217.458c-2.789-3.532-7.913-4.134-11.445-1.345c-3.531,2.789-4.134,7.914-1.344,11.445
	c3.15,3.987,6.579,7.842,10.191,11.455c1.592,1.591,3.677,2.387,5.762,2.387s4.171-0.795,5.763-2.387
	c3.182-3.182,3.181-8.342,0-11.523C172.553,224.324,169.55,220.949,166.793,217.458z"/>
<path d="M273.083,176.843c10.236-5.922,17.141-16.985,17.141-29.637c0-1.96-0.167-3.925-0.498-5.844
	c-0.765-4.434-4.977-7.411-9.415-6.645c-4.435,0.765-7.41,4.979-6.646,9.414c0.174,1.006,0.262,2.04,0.262,3.075
	c0,9.885-8.042,17.927-17.927,17.927s-17.927-8.042-17.927-17.927S246.115,129.28,256,129.28c0.889,0,1.781,0.065,2.651,0.193
	c4.452,0.658,8.594-2.418,9.251-6.871c0.657-4.452-2.418-8.594-6.871-9.251c-1.656-0.244-3.35-0.368-5.033-0.368
	c-18.871,0-34.224,15.353-34.224,34.224c0,12.652,6.906,23.714,17.141,29.637l-95.039,324.72c-0.982,3.356,0.287,6.964,3.153,8.968
	c1.404,0.98,3.036,1.47,4.667,1.47c1.7,0,3.401-0.531,4.837-1.591l99.465-73.366l99.465,73.366c1.436,1.059,3.137,1.591,4.837,1.591
	c1.632,0,3.265-0.489,4.667-1.47c2.866-2.003,4.135-5.612,3.153-8.968L273.083,176.843z M222.55,290.786l19.714,14.526
	l-30.555,22.514L222.55,290.786z M204.154,353.637l56.295-41.482c0.138-0.09,0.267-0.197,0.401-0.296l28.6-21.073l10.841,37.04
	l-13.408-9.88c-3.623-2.669-8.724-1.897-11.394,1.726c-2.669,3.623-1.897,8.724,1.726,11.394l30.63,22.569l5.997,20.49L256,416.791
	l-57.843-42.666L204.154,353.637z M256.001,181.43c0.48,0,0.957-0.017,1.433-0.037l27.143,92.74l-28.576,21.056l-28.576-21.056
	l27.143-92.74C255.043,181.414,255.52,181.43,256.001,181.43z M166.306,482.952l26.976-92.17l48.99,36.136L166.306,482.952z
	 M269.728,426.917l48.99-36.136l26.976,92.17L269.728,426.917z"/>
</svg>