<?xml version="1.0" encoding="iso-8859-1"?>
<!-- Uploaded to: SVG Repo, www.svgrepo.com, Generator: SVG Repo Mixer Tools -->
<svg height="800px" width="800px" version="1.1" id="Layer_1" xmlns="http://www.w3.org/2000/svg" xmlns:xlink="http://www.w3.org/1999/xlink" 
	 viewBox="0 0 512 512" xml:space="preserve">
<path style="fill:#E4EAF8;" d="M503.159,252.922c-1.466-9.011-9.927-15.249-19.056-15.249h-9.996c-4.665,0-8.475-3.528-9.056-8.158
	c-11.941-95.207-87.36-170.624-182.566-182.566c-4.63-0.581-8.158-4.39-8.158-9.056v-9.997c0-9.129-6.238-17.59-15.249-19.056
	c-11.482-1.866-21.404,6.946-21.404,18.077v10.976c0,4.665-3.528,8.475-8.158,9.056c-95.207,11.942-170.624,87.36-182.565,182.568
	c-0.581,4.63-4.39,8.158-9.056,8.158h-9.996c-9.129,0-17.59,6.238-19.056,15.249c-1.869,11.48,6.945,21.403,18.075,21.403h10.976
	c4.665,0,8.475,3.528,9.056,8.158c11.941,95.206,87.36,170.624,182.566,182.566c4.63,0.581,8.158,4.39,8.158,9.056v9.997
	c0,9.129,6.238,17.59,15.249,19.056c11.482,1.868,21.404-6.945,21.404-18.076v-10.978c0-4.665,3.528-8.475,8.158-9.056
	c95.207-11.941,170.624-87.361,182.566-182.566c0.581-4.63,4.39-8.158,9.056-8.158h10.977
	C496.213,274.327,505.027,264.404,503.159,252.922z M256,375.123c-65.79,0-119.123-53.334-119.123-119.123
	S190.211,136.877,256,136.877S375.123,190.21,375.123,256S321.79,375.123,256,375.123z"/>
<path style="fill:#D5DCED;" d="M91.06,256c0-109.185,83.03-198.974,189.393-209.682c-3.559-1.295-6.127-4.492-6.127-8.423v-9.997
	c0-9.129-6.238-17.59-15.249-19.056c-11.482-1.867-21.404,6.945-21.404,18.076v10.976c0,4.665-3.528,8.475-8.158,9.056
	c-95.207,11.942-170.624,87.36-182.565,182.568c-0.581,4.63-4.39,8.158-9.056,8.158h-9.996c-9.129,0-17.59,6.238-19.056,15.249
	c-1.869,11.48,6.945,21.403,18.075,21.403h10.976c4.665,0,8.475,3.528,9.056,8.158c11.941,95.206,87.36,170.624,182.566,182.566
	c4.63,0.581,8.158,4.39,8.158,9.056v9.997c0,9.129,6.238,17.59,15.249,19.056c11.482,1.868,21.404-6.945,21.404-18.076v-10.978
	c0-3.931,2.567-7.127,6.126-8.423C174.089,454.974,91.06,365.184,91.06,256z"/>
<g>
	<path style="fill:#FF5050;" d="M458.02,315.857c3.193-10.794,5.594-21.931,7.029-33.374c0.581-4.63,4.39-8.158,9.056-8.158h10.977
		c11.13,0,19.944-9.923,18.076-21.406c-1.466-9.011-9.927-15.249-19.056-15.249h-9.996c-4.665,0-8.475-3.528-9.056-8.158
		c-1.435-11.443-3.837-22.578-7.029-33.374l-87.843,26.028c3.175,10.733,4.946,22.069,4.946,33.83c0,11.761-1.77,23.098-4.946,33.83
		L458.02,315.857z"/>
	<path style="fill:#FF5050;" d="M53.98,196.142c-3.193,10.794-5.594,21.931-7.029,33.374c-0.581,4.63-4.39,8.158-9.056,8.158H26.917
		c-11.13,0-19.944,9.923-18.076,21.406c1.466,9.011,9.927,15.249,19.056,15.249h9.996c4.665,0,8.475,3.528,9.056,8.158
		c1.435,11.443,3.837,22.578,7.029,33.374l87.843-26.028c-3.175-10.733-4.946-22.069-4.946-33.83c0-11.761,1.77-23.098,4.946-33.83
		L53.98,196.142z"/>
	<path style="fill:#FF5050;" d="M196.142,458.02c10.794,3.193,21.931,5.594,33.374,7.029c4.63,0.581,8.158,4.39,8.158,9.056v10.977
		c0,11.13,9.923,19.944,21.406,18.076c9.011-1.466,15.249-9.927,15.249-19.056v-9.996c0-4.665,3.528-8.475,8.158-9.056
		c11.443-1.435,22.578-3.837,33.374-7.029l-26.028-87.843c-10.733,3.175-22.069,4.946-33.83,4.946
		c-11.761,0-23.098-1.77-33.83-4.946L196.142,458.02z"/>
	<path style="fill:#FF5050;" d="M315.857,53.98c-10.794-3.193-21.931-5.594-33.374-7.029c-4.63-0.581-8.158-4.39-8.158-9.056V26.917
		c0-11.13-9.923-19.944-21.406-18.076c-9.011,1.466-15.249,9.927-15.249,19.056v9.996c0,4.665-3.528,8.475-8.158,9.056
		c-11.443,1.435-22.578,3.837-33.374,7.029l26.028,87.843c10.733-3.175,22.069-4.946,33.83-4.946c11.761,0,23.098,1.77,33.83,4.946
		L315.857,53.98z"/>
</g>
<g>
	<path style="fill:#C84146;" d="M91.06,256c0-16.261,1.904-32.07,5.39-47.274L53.98,196.143
		c-3.193,10.794-5.594,21.931-7.029,33.374c-0.581,4.63-4.39,8.158-9.056,8.158H26.917c-11.13,0-19.944,9.923-18.076,21.406
		c1.466,9.011,9.927,15.249,19.056,15.249h9.996c4.665,0,8.475,3.528,9.056,8.158c1.435,11.443,3.837,22.578,7.029,33.374
		l42.47-12.584C92.964,288.069,91.06,272.261,91.06,256z"/>
	<path style="fill:#C84146;" d="M280.453,46.318c-3.559-1.295-6.127-4.492-6.127-8.425V26.917c0-11.13-9.923-19.944-21.406-18.076
		c-9.011,1.466-15.249,9.927-15.249,19.056v9.996c0,4.665-3.528,8.475-8.158,9.056c-11.443,1.435-22.578,3.837-33.374,7.029
		l4.987,16.833C225.131,57.736,251.953,49.188,280.453,46.318z"/>
	<path style="fill:#C84146;" d="M201.129,441.187l-4.987,16.832c10.794,3.193,21.931,5.594,33.374,7.029
		c4.63,0.581,8.158,4.39,8.158,9.056v10.977c0,11.13,9.923,19.944,21.406,18.076c9.011-1.466,15.249-9.927,15.249-19.056v-9.996
		c0-3.931,2.568-7.127,6.125-8.423C251.951,462.813,225.129,454.264,201.129,441.187z"/>
</g>
<path d="M437.02,74.981C388.668,26.629,324.38,0,256,0S123.332,26.629,74.98,74.981C26.629,123.332,0,187.62,0,256
	s26.629,132.668,74.98,181.019C123.332,485.371,187.62,512,256,512s132.668-26.629,181.02-74.981
	C485.371,388.668,512,324.38,512,256S485.371,123.332,437.02,74.981z M265.736,474.105v10.978c0,2.86-1.252,5.566-3.435,7.422
	c-2.212,1.882-5.054,2.653-8,2.174c-4.507-0.733-8.037-5.379-8.037-10.577v-9.997c0-8.901-6.741-16.458-15.678-17.579
	c-8.008-1.005-15.933-2.506-23.734-4.468l21.167-71.441c9.009,2.022,18.371,3.096,27.981,3.096c9.601,0,18.955-1.073,27.956-3.09
	l21.167,71.441c-7.793,1.96-15.71,3.459-23.709,4.463C272.477,457.647,265.736,465.205,265.736,474.105z M80.642,307.958
	c-1.348-4.548-6.126-7.145-10.678-5.796l-10.026,2.97c-1.961-7.797-3.461-15.716-4.465-23.719
	c-1.121-8.938-8.679-15.677-17.58-15.677H26.917c-2.861,0-5.566-1.252-7.422-3.435c-1.882-2.212-2.653-5.052-2.174-8
	c0.733-4.507,5.379-8.037,10.577-8.037h9.996c8.9,0,16.457-6.74,17.58-15.678c1.003-8.001,2.504-15.921,4.465-23.718l71.439,21.167
	c-2.019,9.004-3.093,18.361-3.093,27.965c0,9.604,1.073,18.961,3.093,27.965l-27.922,8.273c-4.548,1.348-7.144,6.129-5.796,10.678
	c1.106,3.735,4.527,6.153,8.233,6.153c0.808,0,1.63-0.116,2.444-0.357l27.927-8.274c12.929,34.728,40.557,62.357,75.282,75.292
	l-21.165,71.433c-28.898-9.957-55.504-26.449-77.299-48.245c-21.8-21.8-38.293-48.412-48.251-77.315l10.012-2.967
	C79.394,317.288,81.99,312.507,80.642,307.958z M246.264,37.895V26.917c0-2.861,1.252-5.566,3.435-7.422
	c2.213-1.881,5.055-2.653,8.001-2.174c4.507,0.733,8.037,5.379,8.037,10.577v9.998c0,8.901,6.741,16.458,15.678,17.579
	c7.996,1.002,15.911,2.502,23.702,4.461l-2.283,7.705c-1.348,4.548,1.247,9.329,5.796,10.678c0.814,0.241,1.636,0.356,2.444,0.356
	c3.707,0,7.127-2.417,8.233-6.152l2.279-7.691c28.909,9.956,55.527,26.451,77.331,48.254c21.8,21.8,38.293,48.412,48.251,77.315
	l-71.433,21.165c-12.934-34.738-40.573-62.375-75.313-75.304l9.632-32.507c1.348-4.548-1.247-9.329-5.796-10.676
	c-4.548-1.348-9.331,1.247-10.678,5.797l-9.631,32.502c-9.002-2.019-18.353-3.091-27.951-3.091c-9.608,0-18.968,1.074-27.974,3.094
	l-21.167-71.439c7.799-1.962,15.722-3.463,23.726-4.467C239.523,54.353,246.264,46.795,246.264,37.895z M256,366.532
	c-60.947,0-110.532-49.585-110.532-110.532S195.053,145.468,256,145.468S366.532,195.053,366.532,256S316.947,366.532,256,366.532z
	 M190.39,64.836l21.165,71.433c-34.729,12.934-62.359,40.565-75.289,75.295l-71.433-21.165c9.957-28.902,26.45-55.516,48.251-77.315
	C134.881,91.286,161.491,74.793,190.39,64.836z M321.593,447.17l-21.165-71.431c34.737-12.931,62.374-40.566,75.306-75.301
	l71.433,21.165c-9.956,28.902-26.45,55.515-48.249,77.315C377.115,420.719,350.499,437.214,321.593,447.17z M456.525,281.414
	c-1.003,8.001-2.504,15.921-4.465,23.718l-71.439-21.167c2.019-9.004,3.093-18.361,3.093-27.965c0-9.604-1.073-18.961-3.093-27.965
	l71.441-21.167c1.961,7.797,3.461,15.716,4.465,23.719c1.121,8.938,8.68,15.678,17.58,15.678h9.996c5.198,0,9.844,3.53,10.577,8.037
	c0.479,2.947-0.292,5.788-2.174,8c-1.857,2.183-4.561,3.435-7.422,3.435h-10.977C465.205,265.736,457.648,272.476,456.525,281.414z
	 M493.475,230.673c-2.951-1.022-6.108-1.59-9.373-1.59h-9.996c-0.31,0-0.494-0.33-0.531-0.636
	c-6.012-47.931-28.21-93.216-62.508-127.513s-79.582-56.496-127.513-62.508c-0.306-0.038-0.636-0.221-0.636-0.531v-9.998
	c0-3.264-0.568-6.421-1.589-9.373C392.825,30.333,481.667,119.176,493.475,230.673z M230.417,18.555
	c-0.872,2.669-1.334,5.487-1.334,8.363v10.978c0,0.31-0.33,0.494-0.636,0.531c-47.931,6.011-93.216,28.21-127.513,62.508
	s-56.496,79.582-62.508,127.512c-0.039,0.307-0.221,0.637-0.533,0.637h-9.996c-3.266,0-6.422,0.568-9.373,1.59
	C30.324,119.26,119.041,30.47,230.417,18.555z M18.553,281.582c2.67,0.872,5.487,1.336,8.364,1.336h10.976
	c0.31,0,0.494,0.33,0.531,0.636c6.012,47.931,28.21,93.216,62.508,127.513s79.582,56.496,127.513,62.509
	c0.306,0.038,0.636,0.221,0.636,0.531v9.997c0,3.266,0.568,6.422,1.59,9.373C119.26,481.676,30.47,392.959,18.553,281.582z
	 M281.582,493.447c0.872-2.67,1.336-5.487,1.336-8.364v-10.978c0-0.31,0.33-0.494,0.636-0.531
	c47.931-6.012,93.216-28.21,127.513-62.509c34.297-34.297,56.496-79.582,62.508-127.512c0.039-0.307,0.221-0.637,0.533-0.637h10.977
	c2.876,0,5.694-0.463,8.364-1.336C481.539,392.875,392.875,481.539,281.582,493.447z"/>
<path d="M334.392,110.191c3.688,1.987,7.35,4.145,10.885,6.414c1.436,0.922,3.043,1.362,4.632,1.362
	c2.827,0,5.596-1.395,7.238-3.952c2.562-3.992,1.403-9.306-2.59-11.869c-3.902-2.505-7.946-4.887-12.018-7.081
	c-4.175-2.251-9.387-0.688-11.637,3.488C328.654,102.73,330.215,107.94,334.392,110.191z"/>
<path d="M169.341,416.871c1.298,0.7,2.695,1.032,4.073,1.032c3.056,0,6.015-1.635,7.568-4.512c2.253-4.175,0.695-9.387-3.48-11.641
	c-28.324-15.288-51.449-38.301-66.875-66.553c-2.272-4.164-7.492-5.696-11.657-3.423c-4.165,2.274-5.697,7.492-3.422,11.657
	C112.57,374.606,138.088,400.001,169.341,416.871z"/>
<path d="M404.11,182.038c1.505,3.009,4.538,4.749,7.689,4.749c1.291,0,2.604-0.292,3.837-0.909
	c4.244-2.124,5.962-7.284,3.838-11.526c-10.001-19.987-23.449-37.81-39.97-52.974c-3.495-3.208-8.93-2.976-12.138,0.52
	c-3.208,3.495-2.976,8.93,0.52,12.138C382.861,147.778,395.049,163.929,404.11,182.038z"/>
</svg>