<?xml version="1.0" encoding="utf-8"?>
<!-- Generator: Adobe Illustrator 27.5.0, SVG Export Plug-In . SVG Version: 6.00 Build 0)  -->
<svg version="1.1" xmlns="http://www.w3.org/2000/svg" xmlns:xlink="http://www.w3.org/1999/xlink" x="0px" y="0px"
	 viewBox="0 0 3710 3710" style="enable-background:new 0 0 3710 3710;" xml:space="preserve">
<g id="Background">
	<g>
		<g>
			<rect style="fill:#FFFFFF;" width="3710" height="3710"/>
		</g>
	</g>
</g>
<g id="Illustration">
	<g>
		<linearGradient id="SVGID_1_" gradientUnits="userSpaceOnUse" x1="3598.5566" y1="4055.1448" x2="1124.6469" y2="982.7041">
			<stop  offset="0" style="stop-color:#DAE3FE"/>
			<stop  offset="1" style="stop-color:#E9EFFD"/>
		</linearGradient>
		<path style="fill:url(#SVGID_1_);" d="M2921.057,2841.346c-56.994,59.706-110.921,98.21-153.528,128.63
			c-500.835,357.589-1093.456,253.354-1219.405,227.898c-185.987-37.589-545.495-110.248-805.413-414.405
			c-393.234-460.163-332.002-1185.137-26.983-1663.702c55.793-87.538,350.506-573.393,949.511-651.308
			c362.511-47.154,785.082,47.95,1091.097,303.069C3398.687,1307.047,3352.958,2388.889,2921.057,2841.346z"/>
		<g>
			<g>
				<g>
					<path style="fill:#BDD0FB;" d="M2384.073,462.752h-13.44c-6.567,0-14.911,3.173-14.911,11.897V640.86
						c0,8.724,8.344,16.116,14.911,16.116h13.44c6.567,0,5.135-7.392,5.135-16.116V474.65
						C2389.208,465.925,2390.64,462.752,2384.073,462.752z"/>
					<path style="fill:#BDD0FB;" d="M2582.584,462.752h-13.441c-6.567,0-19.197,3.173-19.197,11.897V640.86
						c0,8.724,12.63,16.116,19.197,16.116h13.441c6.567,0,7.546-7.392,7.546-16.116V474.65
						C2590.13,465.925,2589.15,462.752,2582.584,462.752z"/>
				</g>
				<path style="fill:#BDD0FB;" d="M2626.966,538.028c0,8.568-5.344,15.139-14.48,15.139h-285.575
					c-9.136,0-18.071-6.571-18.071-15.139v-3.018c0-8.568,8.935-15.329,18.071-15.329h285.575c9.136,0,14.48,6.761,14.48,15.329
					V538.028z"/>
			</g>
			<path style="fill:#BDD0FB;" d="M2617.478,616.792h-252.791c-26.124,0-55.847,28.839-55.847,63.451v2096.455h339.397
				c9.136,0,8.867-10.028,8.867-22.132V680.243C2657.104,645.631,2643.602,616.792,2617.478,616.792z"/>
			<rect x="651.238" y="898.082" style="fill:#BDD0FB;" width="1818.339" height="110.507"/>
			<rect x="651.238" y="2029.94" style="fill:#BDD0FB;" width="1818.339" height="117.204"/>
			<rect x="651.238" y="2348.066" style="fill:#BDD0FB;" width="1848.478" height="117.204"/>
			<path style="fill:#BDD0FB;" d="M2657.104,2793.441H513.941c-14.795,0-26.79-11.994-26.79-26.789v-90.415h2169.952V2793.441z"/>
			<rect x="651.238" y="1490.801" style="fill:#BDD0FB;" width="1818.339" height="110.507"/>
			<rect x="674.679" y="1835.716" style="fill:#BDD0FB;" width="1771.458" height="33.487"/>
			<g>
				<path style="fill:#BDD0FB;" d="M793.662,616.792h-252.79c-26.124,0-53.72,28.651-53.72,63.022v2059.893
					c0,12.02,13.825,23.596,22.961,23.596h325.303V679.815C835.416,645.443,819.786,616.792,793.662,616.792z"/>
				<g>
					<g>
						<path style="fill:#BDD0FB;" d="M560.257,462.752h-13.441c-6.567,0-12.783,3.173-12.783,11.897V640.86
							c0,8.724,6.217,16.116,12.783,16.116h13.441c6.567,0,3.914-7.392,3.914-16.116V474.65
							C564.172,465.925,566.824,462.752,560.257,462.752z"/>
						<path style="fill:#BDD0FB;" d="M758.768,462.752h-13.441c-6.567,0-17.07,3.173-17.07,11.897V640.86
							c0,8.724,10.503,16.116,17.07,16.116h13.441c6.567,0,2.977-7.392,2.977-16.116V474.65
							C761.745,465.925,765.335,462.752,758.768,462.752z"/>
					</g>
					<path style="fill:#BDD0FB;" d="M805.278,538.028c0,8.568-6.872,15.139-16.009,15.139H503.694
						c-9.136,0-16.542-6.571-16.542-15.139v-3.018c0-8.568,7.406-15.329,16.542-15.329h285.575c9.136,0,16.009,6.761,16.009,15.329
						V538.028z"/>
				</g>
			</g>
			<g>
				<path style="fill:#BDD0FB;" d="M1695.231,777.529H1442.44c-26.123,0-54.49,25.892-54.49,58.246v1939.008
					c0,11.315,14.596,22.007,23.732,22.007h327.881V835.775C1739.562,803.421,1721.355,777.529,1695.231,777.529z"/>
				<g>
					<g>
						<path style="fill:#BDD0FB;" d="M1461.826,616.792h-13.441c-6.566,0-23.6,8.152-23.6,16.877v166.211
							c0,8.724,17.033,14.486,23.6,14.486h13.441c6.567,0,6.492-5.761,6.492-14.486V633.669
							C1468.318,624.945,1468.393,616.792,1461.826,616.792z"/>
						<path style="fill:#BDD0FB;" d="M1660.337,616.792h-13.441c-6.567,0-17.84,8.152-17.84,16.877v166.211
							c0,8.724,11.274,14.486,17.84,14.486h13.441c6.566,0,2.206-5.761,2.206-14.486V633.669
							C1662.542,624.945,1666.903,616.792,1660.337,616.792z"/>
					</g>
					<path style="fill:#BDD0FB;" d="M1706.075,696.909c0,8.568-8.163,16.996-17.299,16.996h-285.575
						c-9.136,0-15.252-8.427-15.252-16.996v-3.018c0-8.568,6.116-16.822,15.252-16.822h285.575c9.136,0,17.299,8.254,17.299,16.822
						V696.909z"/>
				</g>
			</g>
		</g>
		<g>
			<g>
				<rect x="2369.116" y="1279.833" style="fill:#BDD0FB;" width="766.85" height="97.112"/>
				<path style="fill:#BDD0FB;" d="M2369.116,2254.302v100.461h844.795c17.044,0,25.865-13.8,25.865-30.844v-69.617H2369.116z"/>
				<path style="fill:#BDD0FB;" d="M2342.327,2545.638v100.461H3191.5c17.044,0,24.835-13.784,24.835-30.828v-69.633H2342.327z"/>
				<rect x="2369.116" y="1792.183" style="fill:#BDD0FB;" width="766.85" height="93.763"/>
				<rect x="2372.465" y="2086.868" style="fill:#BDD0FB;" width="760.153" height="36.836"/>
				<rect x="2372.465" y="1564.472" style="fill:#BDD0FB;" width="760.153" height="33.487"/>
				<g>
					<path style="fill:#BDD0FB;" d="M2481.552,1035.379h-203.816c-21.063,0-45.916,32.696-45.916,63.544v1848.725
						c0,10.788,13.751,19.926,21.116,19.926h266.871V1098.922C2519.808,1068.074,2502.615,1035.379,2481.552,1035.379z"/>
					<g>
						<g>
							<path style="fill:#BDD0FB;" d="M2293.366,908.128h-10.837c-5.295,0-13.874,2.264-13.874,9.765v142.894
								c0,7.5,8.579,11.427,13.874,11.427h10.837c5.294,0,2.079-3.927,2.079-11.427V917.893
								C2295.445,910.393,2298.661,908.128,2293.366,908.128z"/>
							<path style="fill:#BDD0FB;" d="M2453.418,908.128h-10.837c-5.295,0-13.188,2.264-13.188,9.765v142.894
								c0,7.5,7.894,11.427,13.188,11.427h10.837c5.295,0,6.113-3.927,6.113-11.427V917.893
								C2459.531,910.393,2458.713,908.128,2453.418,908.128z"/>
						</g>
						<path style="fill:#BDD0FB;" d="M2489.669,975.159c0,7.366-5.971,13.338-13.338,13.338h-231.174
							c-7.366,0-13.338-5.971-13.338-13.338v-3.463c0-7.366,5.971-13.338,13.338-13.338h231.174c7.366,0,13.338,5.971,13.338,13.338
							V975.159z"/>
					</g>
				</g>
				<g>
					<path style="fill:#BDD0FB;" d="M3208.453,1172.675h-203.816c-21.063,0-42.802,29.44-42.802,57.536v1683.787
						c0,9.826,10.637,23.437,18.003,23.437h259.938V1230.211C3239.776,1202.115,3229.516,1172.675,3208.453,1172.675z"/>
					<g>
						<g>
							<path style="fill:#BDD0FB;" d="M3020.268,1035.379h-10.837c-5.294,0-14.109,11.725-14.109,19.225v142.894
								c0,7.501,8.814,15.362,14.109,15.362h10.837c5.294,0,5.192-7.861,5.192-15.362v-142.894
								C3025.46,1047.103,3025.562,1035.379,3020.268,1035.379z"/>
							<path style="fill:#BDD0FB;" d="M3180.319,1035.379h-10.837c-5.294,0-16.772,11.725-16.772,19.225v142.894
								c0,7.501,11.478,15.362,16.772,15.362h10.837c5.294,0,2.529-7.861,2.529-15.362v-142.894
								C3182.848,1047.103,3185.614,1035.379,3180.319,1035.379z"/>
						</g>
						<path style="fill:#BDD0FB;" d="M3219.684,1112.456c0,7.366-5.972,13.338-13.338,13.338h-231.174
							c-7.366,0-13.338-5.971-13.338-13.338v-3.463c0-7.366,5.972-13.338,13.338-13.338h231.174c7.366,0,13.338,5.971,13.338,13.338
							V1112.456z"/>
					</g>
				</g>
			</g>
		</g>
		<g>
			<g>
				<path style="fill:#91B3FA;" d="M606.788,501.039c-4.448-16.067,17.941-27.745,32.355-16.966
					c146.378,109.445,500.761,440.489,439.508,1045.792c-76.85,759.443,116.19,1027.858,349.594,1187.034
					c0,0-314.567-66.796-521.525-338.723C398.591,1710.53,685.871,786.719,606.788,501.039z"/>
				<path style="fill:#FFFFFF;" d="M724.022,732.686c21.054,83.38,40.19,167.093,55.745,251.326
					c16.066,84.142,29.167,168.698,39.194,253.514c9.648,84.846,17.45,169.854,21.057,255.064
					c4.05,85.188,3.857,170.472,3.318,256.102c0.014,85.578-0.535,171.794,9.131,258.22c9.555,86.252,31.195,172.786,70.543,253.156
					c9.834,20.029,20.131,39.977,31.692,59.188c11.152,19.409,23.307,38.386,35.854,57.164
					c25.316,37.454,53.573,73.491,84.821,107.522c62.707,67.933,137.453,127.442,219.169,177.081
					c8.601,5.224,20.556,3.386,26.704-4.105c6.037-7.355,4.227-17.428-3.984-22.736l-0.058-0.038
					c-19.473-12.563-38.753-25.305-57.299-38.752c-9.402-6.596-18.439-13.541-27.626-20.335
					c-8.874-7.089-18.074-13.88-26.682-21.201c-35.001-28.768-67.593-59.648-97.352-92.483
					c-59.831-65.343-108.562-138.862-146.309-215.581c-18.375-38.561-33.414-78.257-44.85-118.851
					c-11.402-40.606-19.199-82.067-24.258-123.972c-10.13-83.857-10.402-169.188-11.129-254.753
					c-0.855-85.582-2.395-171.571-8.029-257.331c-2.683-42.882-6.258-85.709-10.719-128.45c-2.088-21.382-4.656-42.721-7.178-64.06
					c-2.76-21.316-5.656-42.615-8.753-63.887c-12.57-85.071-28.144-169.739-46.797-253.832
					c-19.121-84.011-40.823-167.53-66.222-250.148c-0.727-2.362-3.537-3.745-6.279-3.09
					C725.062,728.054,723.447,730.39,724.022,732.686z"/>
			</g>
			<g>
				<g>
					<path style="fill:#7D97F4;" d="M1006.613,2010.585c-15.691,18.018-44.685,14.156-55.392-7.205
						c-59.077-117.859-195.973-466.193-8.847-881.062c158.02-350.338,210.412-555.322,227.748-650.026
						c3.666-20.026,30.766-23.732,39.71-5.443C1308.508,668.628,1575.203,1357.681,1006.613,2010.585z"/>
					<path style="fill:#FFFFFF;" d="M976.371,1999.093c-0.579,0.127-1.176,0.201-1.791,0.214c-5.15,0.124-9.426-3.951-9.55-9.101
						c-0.14-5.839-11.736-589.554,185.975-1086.6c1.904-4.782,7.327-7.121,12.118-5.221c4.787,1.906,7.124,7.329,5.221,12.118
						c-196.273,493.428-184.801,1073.456-184.662,1079.255C983.792,1994.296,980.644,1998.153,976.371,1999.093z"/>
				</g>
			</g>
		</g>
		<g>
			<g>
				
					<linearGradient id="SVGID_00000109027196450186331830000002486243467698164652_" gradientUnits="userSpaceOnUse" x1="1581.8118" y1="496.7661" x2="2502.9221" y2="2757.6787">
					<stop  offset="0" style="stop-color:#09005D"/>
					<stop  offset="1" style="stop-color:#1A0F91"/>
				</linearGradient>
				<path style="fill:url(#SVGID_00000109027196450186331830000002486243467698164652_);" d="M3121.644,1385.963
					c-4.73-73.116-48.886-137.887-115.07-169.321l-857.492-407.254c-54.915-26.081-118.647-26.081-173.561,0l-857.492,407.254
					c-66.185,31.434-110.34,96.205-115.071,169.321c-80.433,1243.291,716.75,1696.296,978.075,1810.728
					c51.826,22.695,110.709,22.695,162.536,0C2404.894,3082.259,3202.077,2629.254,3121.644,1385.963z"/>
				<path style="fill:#BDD0FB;" d="M1802.929,989.351c-7.693,0-15.068-4.332-18.585-11.74c-4.87-10.258-0.506-22.52,9.748-27.39
					l202.61-96.226c10.27-4.87,22.524-0.506,27.39,9.748c4.87,10.258,0.506,22.52-9.748,27.39l-202.61,96.226
					C1808.883,988.713,1805.884,989.351,1802.929,989.351z"/>
				<path style="fill:#BDD0FB;" d="M1068.526,1660.415c-11.033,0-20.159-8.753-20.532-19.866
					c-2.726-81.126-1.297-165.709,4.248-251.4c3.565-55.101,36.889-104.108,86.972-127.896l576.844-273.968
					c10.258-4.878,22.516-0.506,27.39,9.748c4.87,10.258,0.506,22.52-9.748,27.39l-576.844,273.968
					c-36.62,17.393-60.987,53.186-63.589,93.416c-5.456,84.35-6.866,167.576-4.184,247.361c0.381,11.346-8.508,20.854-19.854,21.235
					C1068.991,1660.411,1068.758,1660.415,1068.526,1660.415z"/>
				
					<linearGradient id="SVGID_00000012431591576273315750000009630751342491069624_" gradientUnits="userSpaceOnUse" x1="1773.5461" y1="978.2345" x2="2523.7539" y2="2819.658">
					<stop  offset="0" style="stop-color:#4F52FF"/>
					<stop  offset="1" style="stop-color:#4042E2"/>
				</linearGradient>
				<path style="fill:url(#SVGID_00000012431591576273315750000009630751342491069624_);" d="M2914.286,1434.489
					c-0.947-18.535-11.982-35.081-28.747-43.044L2083.93,1010.73c-13.687-6.5-29.571-6.5-43.258,0l-801.606,380.715
					c-16.766,7.963-27.8,24.508-28.747,43.044c-23.706,463.786,83.419,850.754,318.627,1150.679
					c179.323,228.665,389.096,351.206,512.021,408.376c13.543,6.299,29.127,6.299,42.671,0
					c122.922-57.168,332.698-179.711,512.02-408.376C2830.864,2285.243,2937.99,1898.271,2914.286,1434.489z"/>
			</g>
			
				<linearGradient id="SVGID_00000053536516184269124430000016653268415960072349_" gradientUnits="userSpaceOnUse" x1="1793.8356" y1="1699.0579" x2="2495.1641" y2="1699.0579">
				<stop  offset="0" style="stop-color:#DAE3FE"/>
				<stop  offset="1" style="stop-color:#E9EFFD"/>
			</linearGradient>
			<path style="fill:url(#SVGID_00000053536516184269124430000016653268415960072349_);" d="M2084.361,2063.375
				c-27.45,0-52.565-13.146-66.366-34.608l-214.808-334.066c-18.62-28.954-8.617-71.047,22.719-94.803
				c31.997-24.262,74.586-20.674,94.716,8.862l158.044,231.918l235.815-443.902c22.89-43.09,79.167-70.212,126.519-59.812
				c48.649,10.681,68.381,56.442,43.179,101.37l-327.776,584.35c-13.577,24.2-40.231,39.71-69.26,40.644
				C2086.216,2063.358,2085.288,2063.375,2084.361,2063.375z"/>
		</g>
		<g>
			
				<linearGradient id="SVGID_00000127741954988406506610000015240916885649876377_" gradientUnits="userSpaceOnUse" x1="2257.1897" y1="3117.605" x2="2900.1362" y2="2267.0396">
				<stop  offset="0" style="stop-color:#E1473D"/>
				<stop  offset="1" style="stop-color:#E9605A"/>
			</linearGradient>
			<path style="fill:url(#SVGID_00000127741954988406506610000015240916885649876377_);" d="M3125.851,2846.982
				c0-553.938-575.905-632.706-592.648-635.496v-0.087c0,0,0.172,0.02,0,0.042c-0.173-0.022,0-0.042,0-0.042v0.087
				c-16.744,2.79-596.233,81.558-596.233,635.496c34.391,33.755,11.019,50.269,11.019,50.269h572.262h18.734h572.263
				C3111.248,2897.251,3091.459,2880.737,3125.851,2846.982z"/>
			
				<linearGradient id="SVGID_00000058558921577525738190000000410054021933537959_" gradientUnits="userSpaceOnUse" x1="2534.9211" y1="2829.9453" x2="2493.6523" y2="3461.3606">
				<stop  offset="0" style="stop-color:#FF928E"/>
				<stop  offset="1" style="stop-color:#FE7062"/>
			</linearGradient>
			<path style="fill:url(#SVGID_00000058558921577525738190000000410054021933537959_);" d="M1911.082,2919.25
				c0,0-16.508,220.789,579.829,220.789c645.243,0,656.176-220.789,656.176-220.789S2356.786,2803.697,1911.082,2919.25z"/>
			
				<linearGradient id="SVGID_00000012444038509233315900000011893428168317088387_" gradientUnits="userSpaceOnUse" x1="2703.439" y1="2287.592" x2="2636.4648" y2="2511.9546">
				<stop  offset="0" style="stop-color:#FF928E"/>
				<stop  offset="1" style="stop-color:#FE7062"/>
			</linearGradient>
			<path style="fill:url(#SVGID_00000012444038509233315900000011893428168317088387_);" d="M1911.082,2869.727
				c0,0-16.508,220.788,579.829,220.788c645.243,0,656.176-220.788,656.176-220.788S2356.786,2754.174,1911.082,2869.727z"/>
			
				<linearGradient id="SVGID_00000131328064075576988180000005948777525059313322_" gradientUnits="userSpaceOnUse" x1="2663.429" y1="2138.3494" x2="2546.2244" y2="2801.3904">
				<stop  offset="0" style="stop-color:#FF928E"/>
				<stop  offset="1" style="stop-color:#FE7062"/>
			</linearGradient>
			<path style="fill:url(#SVGID_00000131328064075576988180000005948777525059313322_);" d="M3149.962,2850.615
				c-1.236-13.714-14.042-24.22-27.813-24.22c-13.92,0-26.367,11.284-26.367,25.205v0.237c0,1.896,0.333,3.697-1.108,4.93
				c-1.44,1.233-2.918,1.781-4.791,1.487c-51.77-8.126-354.441-57.948-374.566-113.819
				c-5.503-146.395,38.012-473.107,19.441-493.742c-16.39-18.211-68.045-29.457-101.251-31.848
				c-3.213-0.231-6.336,0.853-8.735,3.003c-2.398,2.151-3.795,5.184-3.915,8.403c-2.719,72.566-10.738,433.995-12.242,502.187
				c-0.136,6.166-5.16,10.773-11.327,10.773h-7.448c-3.073,0-5.978-0.924-8.115-3.132c-2.137-2.208-3.25-5.028-3.15-8.099
				l17.589-537.538c0.54-16.559-10.472-31.18-26.576-35.07c-26.546-6.459-54.252-6.462-80.809-0.048l-0.281,0.078
				c-16.104,3.89-27.265,18.556-26.725,35.115l17.515,537.62c0.1,3.072-1.05,5.732-3.188,7.94c-2.137,2.208-5.08,3.133-8.152,3.133
				h-7.448c-6.167,0-11.202-4.608-11.338-10.773c-1.504-68.191-9.534-429.782-12.253-502.348c-0.12-3.219-1.54-6.171-3.938-8.322
				c-2.398-2.151-5.567-3.194-8.78-2.963c-33.207,2.391-84.953,13.657-101.343,31.868c-18.571,20.635,24.761,347.357,19.259,493.752
				c-20.125,55.871-323.161,105.698-374.931,113.823c-1.873,0.294-3.335-0.251-4.776-1.484c-1.441-1.234-1.823-3.032-1.823-4.928
				v-0.237c0-13.92-11.732-25.205-25.652-25.205c-13.77,0-25.489,10.506-26.725,24.22l-5.655,61.505
				c-0.281,3.118,0.759,6.202,2.943,8.442c2.184,2.241,5.211,3.416,8.335,3.215l615.384-39.605l615.13,39.603
				c3.129,0.201,6.186-0.978,8.371-3.226c2.185-2.248,3.274-5.341,2.984-8.462L3149.962,2850.615z"/>
			<g style="opacity:0.7;">
				<path style="opacity:0.3;fill:#FFFFFF;" d="M2242.819,2378.733c-50.235-11.491-100.917,47.186-128.952,82.292
					c-32.853,41.14-84.562,97.324-56.018,154.858c19.528,39.363,68.627,50.993,106.552,35.626
					c42.859-17.371,41.06-65.261,57.885-102.394c19.389-42.791,70.593-100.407,44.65-150.674
					C2261.002,2386.946,2252.523,2380.953,2242.819,2378.733z"/>
			</g>
			<g style="opacity:0.7;">
				<g>
					<path style="fill:#FFFFFF;" d="M2177.219,2738.436c-171.512,0-219.16-53.779-221.518-56.58
						c-1.467-1.745-1.241-4.349,0.504-5.815c1.745-1.463,4.34-1.241,5.803,0.492c0.786,0.911,72.527,80.317,352.612,43.973
						c2.257-0.323,4.328,1.298,4.623,3.559c0.294,2.261-1.298,4.333-3.559,4.623
						C2262.385,2735.607,2216.546,2738.436,2177.219,2738.436z"/>
				</g>
				<g>
					<path style="fill:#FFFFFF;" d="M2880.903,2738.436c-39.334,0-85.149-2.829-138.465-9.749c-2.261-0.29-3.853-2.362-3.558-4.623
						c0.29-2.261,2.337-3.881,4.622-3.559c281.282,36.501,351.919-43.155,352.6-43.961c1.475-1.741,4.075-1.967,5.816-0.504
						c1.745,1.467,1.971,4.071,0.504,5.815C3100.064,2684.657,3052.383,2738.436,2880.903,2738.436z"/>
				</g>
			</g>
			<path style="opacity:0.2;fill:#FFFFFF;" d="M2549.946,2784.741c0,6.361-10.75,11.517-21.767,11.517l0,0
				c-11.016,0-21.766-5.156-21.766-11.517v-598.879c0-6.361,10.75-11.517,21.766-11.517l0,0c11.016,0,21.767,5.156,21.767,11.517
				V2784.741z"/>
			<g>
				<path style="opacity:0.2;fill:#FFFFFF;" d="M2684.398,2262.781l-6.229-1.96c-6.471-2.036-13.579-1.098-19.211,2.534
					c-5.632,3.633-9.14,9.542-9.481,15.973l-26.525,499.512c-0.52,9.794,7.112,18.284,17.435,19.395l0.399,0.043
					c5.338,0.575,10.694-0.935,14.824-4.178c4.13-3.243,6.677-7.939,7.049-12.998l36.607-497.355
					C2699.955,2274.375,2693.84,2265.751,2684.398,2262.781z"/>
				<path style="opacity:0.2;fill:#FFFFFF;" d="M2373.725,2262.781l6.229-1.96c6.471-2.036,13.579-1.098,19.211,2.534
					c5.632,3.633,9.14,9.542,9.482,15.973l26.525,499.512c0.52,9.794-7.112,18.284-17.435,19.395l-0.398,0.043
					c-5.339,0.575-10.694-0.935-14.825-4.178c-4.13-3.243-6.677-7.939-7.049-12.998l-36.607-497.355
					C2358.168,2274.375,2364.283,2265.751,2373.725,2262.781z"/>
			</g>
			
				<linearGradient id="SVGID_00000093166535334237452450000003229421577570466998_" gradientUnits="userSpaceOnUse" x1="2533.0291" y1="2643.7092" x2="2510.4141" y2="3247.8362">
				<stop  offset="0" style="stop-color:#FF928E"/>
				<stop  offset="1" style="stop-color:#FE7062"/>
			</linearGradient>
			<path style="fill:url(#SVGID_00000093166535334237452450000003229421577570466998_);" d="M3037.558,2938.653
				c-1.412-5.483-6.063-9.521-11.688-10.155c-111.839-12.604-510.476-49.316-1007.863,0.338
				c-5.722,0.571-10.471,4.669-11.874,10.245c-1.404,5.576,0.837,11.44,5.608,14.65c56.837,38.231,208.77,114.083,517.6,112.022
				c308.167-2.056,450.582-75.544,502.887-112.564C3036.849,2949.92,3038.97,2944.135,3037.558,2938.653z"/>
		</g>
		<g>
			<g>
				
					<linearGradient id="SVGID_00000176032376755668439040000011135162054287081401_" gradientUnits="userSpaceOnUse" x1="2099.3345" y1="561.0854" x2="1216.8732" y2="3916.7607">
					<stop  offset="0" style="stop-color:#09005D"/>
					<stop  offset="1" style="stop-color:#1A0F91"/>
				</linearGradient>
				<path style="fill:url(#SVGID_00000176032376755668439040000011135162054287081401_);" d="M735.16,3141.662
					c-37.738,0-72.903-18.571-91.772-51.253c-18.869-32.681-18.869-72.42,0-105.103l712.83-1234.225
					c18.868-32.682,54.033-52.769,91.771-52.769c37.741,0,72.906,20.411,91.774,53.095l712.829,1234.711
					c18.87,32.681,18.87,71.583-0.003,104.266c-18.862,32.678-54.027,51.277-91.768,51.277H735.16z"/>
				
					<linearGradient id="SVGID_00000114047506934147751960000008922762418723632796_" gradientUnits="userSpaceOnUse" x1="1072.8971" y1="2006.4076" x2="1307.3054" y2="2652.7056">
					<stop  offset="0" style="stop-color:#FF928E"/>
					<stop  offset="1" style="stop-color:#FE7062"/>
				</linearGradient>
				<path style="fill:url(#SVGID_00000114047506934147751960000008922762418723632796_);" d="M2212.785,3071.067
					c-10.715,18.559-30.539,31.895-51.971,31.895H735.153c-21.432,0-41.227-13.335-51.943-31.895
					c-10.745-18.559-10.745-42.407,0-60.966l712.802-1235.117c8.791-15.198,23.644-25.864,40.479-29.139
					c3.736-0.747,7.585-1.239,11.492-1.239c21.432,0,41.256,11.375,51.972,29.963l712.83,1235.562
					C2223.502,3028.69,2223.502,3052.508,2212.785,3071.067z"/>
			</g>
			<g>
				
					<linearGradient id="SVGID_00000119091301555253974780000009018570517513522602_" gradientUnits="userSpaceOnUse" x1="2182.6853" y1="583.0012" x2="1300.2275" y2="3938.6638">
					<stop  offset="0" style="stop-color:#09005D"/>
					<stop  offset="1" style="stop-color:#1A0F91"/>
				</linearGradient>
				
					<circle style="fill:url(#SVGID_00000119091301555253974780000009018570517513522602_);" cx="1689.358" cy="2458.944" r="63.602"/>
				<g>
					
						<linearGradient id="SVGID_00000128463541424163853920000001447956337228066208_" gradientUnits="userSpaceOnUse" x1="2084.7944" y1="557.2604" x2="1202.335" y2="3912.9299">
						<stop  offset="0" style="stop-color:#09005D"/>
						<stop  offset="1" style="stop-color:#1A0F91"/>
					</linearGradient>
					<polygon style="fill:url(#SVGID_00000128463541424163853920000001447956337228066208_);" points="1675.224,2568.215 
						1480.626,2742.831 1414.536,2652.497 1584.533,2476.611 					"/>
					<g>
						
							<linearGradient id="SVGID_00000150822658019755278160000000479392686117892005_" gradientUnits="userSpaceOnUse" x1="2121.0959" y1="566.8057" x2="1238.637" y2="3922.4729">
							<stop  offset="0" style="stop-color:#09005D"/>
							<stop  offset="1" style="stop-color:#1A0F91"/>
						</linearGradient>
						<polygon style="fill:url(#SVGID_00000150822658019755278160000000479392686117892005_);" points="1750.507,2808.838 
							1700.196,2808.838 1700.196,2661.989 1465.843,2430.294 1454.413,2269.14 1501.803,2265.567 1512.872,2409.075 
							1750.507,2642.219 						"/>
					</g>
					<g>
						
							<linearGradient id="SVGID_00000129167301731636636990000017481561522448918674_" gradientUnits="userSpaceOnUse" x1="1871.1759" y1="501.0868" x2="988.7162" y2="3856.7571">
							<stop  offset="0" style="stop-color:#09005D"/>
							<stop  offset="1" style="stop-color:#1A0F91"/>
						</linearGradient>
						<polygon style="fill:url(#SVGID_00000129167301731636636990000017481561522448918674_);" points="1438.552,2682.596 
							1330.217,2628.428 1173.849,2668.637 1162.117,2623.009 1335.535,2578.415 1459.619,2640.457 						"/>
					</g>
					<g>
						
							<linearGradient id="SVGID_00000056393094281388878350000009395211571133462708_" gradientUnits="userSpaceOnUse" x1="1999.4167" y1="534.8071" x2="1116.9554" y2="3890.4829">
							<stop  offset="0" style="stop-color:#09005D"/>
							<stop  offset="1" style="stop-color:#1A0F91"/>
						</linearGradient>
						<polygon style="fill:url(#SVGID_00000056393094281388878350000009395211571133462708_);" points="1330.267,2935.33 
							1287.585,2915.381 1340.343,2802.506 1480.73,2680.273 1511.666,2715.805 1378.801,2831.489 						"/>
					</g>
				</g>
				<g>
					
						<linearGradient id="SVGID_00000172435207581954861240000009061601520755731335_" gradientUnits="userSpaceOnUse" x1="1724.1074" y1="462.4095" x2="841.6484" y2="3818.0769">
						<stop  offset="0" style="stop-color:#09005D"/>
						<stop  offset="1" style="stop-color:#1A0F91"/>
					</linearGradient>
					<polygon style="fill:url(#SVGID_00000172435207581954861240000009061601520755731335_);" points="1185.479,2971.38 
						1146.779,2971.38 1146.779,2750.787 1011.327,2750.787 1011.327,2712.087 1185.479,2712.087 					"/>
				</g>
			</g>
		</g>
		<g>
			<g>
				
					<linearGradient id="SVGID_00000065776284061371370270000000389478717018626722_" gradientUnits="userSpaceOnUse" x1="2019.749" y1="2977.2998" x2="1967.3434" y2="4204.2183">
					<stop  offset="0" style="stop-color:#FF928E"/>
					<stop  offset="1" style="stop-color:#FE7062"/>
				</linearGradient>
				<path style="fill:url(#SVGID_00000065776284061371370270000000389478717018626722_);" d="M2541.436,3106.728l-56.742-2.407
					c-89.922-30.442-265.76-51.119-467.967-51.119c-216.008,0-401.926,23.596-485.159,57.485l-52.919,0.353l6.332,39.574l0,0
					c0,53.799,238.07,97.412,531.745,97.412c282.845,0,514.071-40.457,530.744-91.505
					C2547.945,3153.151,2542.702,3106.523,2541.436,3106.728z"/>
				
					<linearGradient id="SVGID_00000098931505773899851840000009836542060592226227_" gradientUnits="userSpaceOnUse" x1="1998.1578" y1="2083.2048" x2="2001.5068" y2="2364.4949">
					<stop  offset="0" style="stop-color:#E1473D"/>
					<stop  offset="1" style="stop-color:#E9605A"/>
				</linearGradient>
				
					<ellipse style="fill:url(#SVGID_00000098931505773899851840000009836542060592226227_);" cx="2010.395" cy="3111.041" rx="531.745" ry="97.412"/>
			</g>
			<g>
				
					<linearGradient id="SVGID_00000137131818544860038650000015892140879270046852_" gradientUnits="userSpaceOnUse" x1="2152.6689" y1="2262.6514" x2="2256.4785" y2="1669.9326">
					<stop  offset="0" style="stop-color:#FF928E"/>
					<stop  offset="1" style="stop-color:#FE7062"/>
				</linearGradient>
				<path style="fill:url(#SVGID_00000137131818544860038650000015892140879270046852_);" d="M2396.596,3087.438
					c0,35.552-111.879,63.186-266.316,70.36c-38.988,1.795-80.662,2.293-123.902,1.296c-212.554-4.903-383.35-44.439-383.35-88.214
					c0-0.992,0.118-3.148,0.294-3.145l-0.294-0.006l0.882-2.11c0.205-0.719,0.469-1.371,0.793-2.04l49.023-128.15l59.198-154.634
					l82.906-216.725l63.451-165.897l78.931-206.282c9.875-25.828,28.176-41.882,47.957-41.882c2.69,0,5.321,0.274,7.923,0.865
					c16.693,3.645,31.602,18.684,40.168,41.065l79.597,207.732l63.567,168.085l83.875,221.073v0.046l60.222,158.84v0.046
					l0.958,0.093l50.153,129.086C2394.793,3080.383,2396.596,3083.901,2396.596,3087.438z"/>
				<path style="opacity:0.9;fill:#FFFFFF;" d="M2342.479,2947.852c-48.395,16.171-125.759,27.817-218.375,32.147
					c-37.328,1.757-76.816,2.325-117.959,1.543c-142.813-2.715-266.635-21.088-332.536-46.082l59.256-154.65
					c69.339,15.597,165.98,26.114,273.394,27.731c34.734,0.523,68.578,0.075,100.81-1.221c67.826-2.684,127.629-9.194,174.745-18.44
					l59.708,158.833v0.046L2342.479,2947.852z"/>
				<path style="opacity:0.9;fill:#FFFFFF;" d="M2198.148,2567.757c-36.94,3.99-77.546,6.703-120.626,7.927
					c-23.082,0.687-46.857,0.912-71.145,0.675c-69.513-0.677-134.526-5.123-190.548-12.283l63.451-165.901
					c39.712,3.134,82.481,4.926,127.097,5.185c15.76,0.091,31.292-0.001,46.536-0.323c27.967-0.523,55.071-1.645,80.944-3.368
					L2198.148,2567.757z"/>
			</g>
		</g>
	</g>
</g>
</svg>
